<svg id="Group_704" data-name="Group 704" xmlns="http://www.w3.org/2000/svg" width="20.074" height="19.999" viewBox="0 0 20.074 19.999">
  <path id="Path_1118" data-name="Path 1118" d="M-874.285,237.754a10.018,10.018,0,0,0-10.037,10,10.018,10.018,0,0,0,10.037,10,10.018,10.018,0,0,0,10.037-10A10.018,10.018,0,0,0-874.285,237.754Zm4.992,8.289c0,.1.007.2.007.294a6.453,6.453,0,0,1-6.51,6.486A6.5,6.5,0,0,1-879.3,251.8a4.636,4.636,0,0,0,.547.032,4.608,4.608,0,0,0,2.842-.976,2.29,2.29,0,0,1-2.137-1.583,2.337,2.337,0,0,0,.43.041,2.328,2.328,0,0,0,.6-.08A2.281,2.281,0,0,1-878.855,247v-.029a2.293,2.293,0,0,0,1.036.285,2.276,2.276,0,0,1-1.018-1.9,2.259,2.259,0,0,1,.31-1.145,6.5,6.5,0,0,0,4.716,2.381,2.257,2.257,0,0,1-.06-.52,2.284,2.284,0,0,1,2.288-2.279,2.289,2.289,0,0,1,1.67.719,4.546,4.546,0,0,0,1.453-.553,2.287,2.287,0,0,1-1.006,1.262,4.582,4.582,0,0,0,1.314-.359A4.647,4.647,0,0,1-869.293,246.043Z" transform="translate(884.322 -237.754)" fill="#fff"/>
</svg>
