<svg xmlns="http://www.w3.org/2000/svg" width="20.076" height="20" viewBox="0 0 20.076 20">
  <path id="Path_1119" data-name="Path 1119" d="M-795.346,237.753a10.02,10.02,0,0,0-10.038,10,10.019,10.019,0,0,0,10.038,10,10.019,10.019,0,0,0,10.038-10A10.02,10.02,0,0,0-795.346,237.753Zm-2.73,14.358h-2.238v-6.929h2.238Zm-1.134-7.779a1.083,1.083,0,0,1-1.164-1.076,1.094,1.094,0,0,1,1.194-1.077A1.086,1.086,0,0,1-798,243.255,1.1,1.1,0,0,1-799.209,244.331Zm9.309,7.779h-2.239v-3.84c0-.892-.324-1.5-1.134-1.5a1.223,1.223,0,0,0-1.15.806,1.488,1.488,0,0,0-.074.539v4h-2.238v-4.718c0-.865-.03-1.586-.06-2.211h1.945l.1.964h.045a2.611,2.611,0,0,1,2.225-1.119c1.471,0,2.577.949,2.577,2.99Z" transform="translate(805.384 -237.753)" fill="#fff"/>
</svg>
