<svg id="Group_705" data-name="Group 705" xmlns="http://www.w3.org/2000/svg" width="20.076" height="20" viewBox="0 0 20.076 20">
  <path id="Path_1120" data-name="Path 1120" d="M-827.467,246.4a1.952,1.952,0,0,0-.477-.727,1.969,1.969,0,0,0-.733-.474,3.547,3.547,0,0,0-1.183-.218c-.672-.031-.874-.037-2.576-.037s-1.9.006-2.576.037a3.551,3.551,0,0,0-1.184.218,1.968,1.968,0,0,0-.733.474,1.96,1.96,0,0,0-.477.727,3.491,3.491,0,0,0-.219,1.174c-.03.668-.037.868-.037,2.557s.007,1.89.037,2.557a3.5,3.5,0,0,0,.219,1.175,1.96,1.96,0,0,0,.477.727,1.976,1.976,0,0,0,.733.474,3.569,3.569,0,0,0,1.184.218c.672.03.873.037,2.576.037s1.9-.007,2.576-.037a3.564,3.564,0,0,0,1.183-.218,1.977,1.977,0,0,0,.733-.474,1.953,1.953,0,0,0,.477-.727,3.5,3.5,0,0,0,.219-1.175c.031-.667.037-.867.037-2.557s-.006-1.889-.037-2.557A3.494,3.494,0,0,0-827.467,246.4Zm-4.968,6.981a3.261,3.261,0,0,1-3.273-3.25,3.261,3.261,0,0,1,3.273-3.249,3.261,3.261,0,0,1,3.273,3.249A3.261,3.261,0,0,1-832.436,253.383Zm3.4-5.868a.762.762,0,0,1-.765-.759.762.762,0,0,1,.765-.759.762.762,0,0,1,.765.759A.762.762,0,0,1-829.034,247.515Z" transform="translate(842.474 -240.133)" fill="#fff"/>
  <path id="Path_1121" data-name="Path 1121" d="M-830.9,249.579a2.125,2.125,0,0,0-2.125,2.125,2.124,2.124,0,0,0,2.125,2.125,2.125,2.125,0,0,0,2.125-2.125A2.125,2.125,0,0,0-830.9,249.579Z" transform="translate(840.941 -241.704)" fill="#fff"/>
  <path id="Path_1122" data-name="Path 1122" d="M-834.815,237.753a10.02,10.02,0,0,0-10.039,10,10.019,10.019,0,0,0,10.039,10,10.019,10.019,0,0,0,10.038-10A10.02,10.02,0,0,0-834.815,237.753Zm6.335,12.618a4.654,4.654,0,0,1-.3,1.542,3.126,3.126,0,0,1-.735,1.125,3.13,3.13,0,0,1-1.129.732,4.678,4.678,0,0,1-1.547.3c-.68.031-.9.038-2.628.038s-1.949-.007-2.628-.038a4.682,4.682,0,0,1-1.547-.3,3.129,3.129,0,0,1-1.129-.732,3.117,3.117,0,0,1-.735-1.125,4.637,4.637,0,0,1-.3-1.542c-.031-.677-.038-.893-.038-2.618s.007-1.941.038-2.618a4.632,4.632,0,0,1,.3-1.541,3.117,3.117,0,0,1,.735-1.125,3.131,3.131,0,0,1,1.129-.733,4.7,4.7,0,0,1,1.547-.295c.68-.031.9-.039,2.628-.039s1.948.007,2.628.039a4.7,4.7,0,0,1,1.547.295,3.132,3.132,0,0,1,1.129.733,3.126,3.126,0,0,1,.735,1.125,4.649,4.649,0,0,1,.3,1.541c.031.677.039.894.039,2.618S-828.449,249.694-828.481,250.371Z" transform="translate(844.854 -237.753)" fill="#fff"/>
</svg>