<svg id="Group_703" data-name="Group 703" xmlns="http://www.w3.org/2000/svg" width="20.076" height="20" viewBox="0 0 20.076 20">
  <g id="Group_702" data-name="Group 702">
    <path id="Path_1117" data-name="Path 1117" d="M-903.718,247.753a10.018,10.018,0,0,0-10.038-10,10.019,10.019,0,0,0-10.039,10,10.019,10.019,0,0,0,10.039,10c.041,0,.081-.006.122-.007v-6.824h-1.813v-2.458h1.813v-2.1c0-1.65,1.07-3.166,3.538-3.166a14.95,14.95,0,0,1,1.737.1l-.058,2.3s-.753-.007-1.576-.007c-.889,0-1.032.409-1.032,1.087v1.8h2.678l-.116,2.458h-2.562v6.446A10,10,0,0,0-903.718,247.753Z" transform="translate(923.794 -237.753)" fill="#fff"/>
  </g>
</svg>