<svg id="Group_708" data-name="Group 708" xmlns="http://www.w3.org/2000/svg" xmlns:xlink="http://www.w3.org/1999/xlink" width="120.5" height="24.088" viewBox="0 0 120.5 24.088">
  <defs>
    <clipPath id="clip-path">
      <rect id="Rectangle_648" data-name="Rectangle 648" width="120.5" height="24.088" fill="none"/>
    </clipPath>
  </defs>
  <path id="Path_1138" data-name="Path 1138" d="M9.132,2.445,5.174,11.973V2.445H0V25.883H5.174V16.213l.509-.806L9.1,25.883h5.287L9.839,13.033l4.34-10.588Z" transform="translate(0 -2.12)" fill="#d2aa5f"/>
  <path id="Path_1139" data-name="Path 1139" d="M133.136,25.882V2.444h10.531V5.978H138.31v5.8H142.4v3.6H138.31v7h5.414v3.506Z" transform="translate(-115.432 -2.119)" fill="#d2aa5f"/>
  <path id="Path_1140" data-name="Path 1140" d="M238.876,25.882V2.444h3.647l4.82,11.252V2.444h4.3V25.882h-3.506L243.3,13.753V25.882Z" transform="translate(-207.111 -2.119)" fill="#d2aa5f"/>
  <g id="Group_707" data-name="Group 707">
    <g id="Group_706" data-name="Group 706" clip-path="url(#clip-path)">
      <path id="Path_1141" data-name="Path 1141" d="M407.826,25.883V2.445h6.39a18.122,18.122,0,0,1,2.629.17,8.822,8.822,0,0,1,2.149.594,4.788,4.788,0,0,1,1.654,1.117,4.811,4.811,0,0,1,1.018,1.781,7.961,7.961,0,0,1,.368,2.544,9.238,9.238,0,0,1-.622,3.7,4.411,4.411,0,0,1-2.248,2.177l3.223,11.351h-5.358l-2.573-10.489H413V25.883ZM413,12.411h1.329a2.694,2.694,0,0,0,2.233-.82,3.937,3.937,0,0,0,.65-2.474,4.028,4.028,0,0,0-.587-2.41,2.376,2.376,0,0,0-2.029-.785H413Z" transform="translate(-353.595 -2.12)" fill="#d2aa5f"/>
      <path id="Path_1142" data-name="Path 1142" d="M549.67,26.208a10.482,10.482,0,0,1-2.792-.332,5.677,5.677,0,0,1-1.979-.94,4.537,4.537,0,0,1-1.272-1.576,7.5,7.5,0,0,1-.686-2.135,16.442,16.442,0,0,1-.2-2.721V2.445h5.117V19.267q0,.551.028.94a5.407,5.407,0,0,0,.134.841,2.408,2.408,0,0,0,.29.742,1.419,1.419,0,0,0,.53.481,1.688,1.688,0,0,0,.827.191,1.649,1.649,0,0,0,.82-.191,1.437,1.437,0,0,0,.523-.481,2.414,2.414,0,0,0,.29-.742,5.438,5.438,0,0,0,.134-.848q.028-.4.028-.933V2.445H556.6V18.5a14.317,14.317,0,0,1-.332,3.322,6.342,6.342,0,0,1-1.11,2.389,4.537,4.537,0,0,1-2.134,1.505,9.982,9.982,0,0,1-3.35.488" transform="translate(-470.572 -2.12)" fill="#d2aa5f"/>
      <path id="Path_1143" data-name="Path 1143" d="M681.258,24.088a6.432,6.432,0,0,1-4.969-1.774q-1.633-1.774-1.76-5.662l4.439-.679a7.777,7.777,0,0,0,.53,3.2,1.607,1.607,0,0,0,1.506,1q1.314,0,1.315-1.7a4.418,4.418,0,0,0-.339-1.746,5.059,5.059,0,0,0-.834-1.364,13.948,13.948,0,0,0-1.385-1.329l-2.078-1.8a15.618,15.618,0,0,1-1.244-1.187,9.128,9.128,0,0,1-.968-1.279,5.523,5.523,0,0,1-.7-1.647,8.214,8.214,0,0,1-.226-1.993A5.809,5.809,0,0,1,676.3,1.612,6.918,6.918,0,0,1,681.1,0a7.446,7.446,0,0,1,1.9.226,5.238,5.238,0,0,1,1.442.594,4.1,4.1,0,0,1,1.032.926,5.65,5.65,0,0,1,.707,1.117,7.029,7.029,0,0,1,.438,1.258,9.514,9.514,0,0,1,.24,1.279q.063.58.092,1.244l-4.481.58q-.014-.594-.035-.983t-.078-.827a3.371,3.371,0,0,0-.155-.707,2.228,2.228,0,0,0-.262-.5.9.9,0,0,0-.41-.332,1.42,1.42,0,0,0-.587-.085,1.2,1.2,0,0,0-1.039.573,2.259,2.259,0,0,0-.36,1.251,4.208,4.208,0,0,0,.163,1.209,3.147,3.147,0,0,0,.565,1.053,9.255,9.255,0,0,0,.657.763q.254.255.848.792l1.993,1.753a17.413,17.413,0,0,1,1.414,1.407,11.691,11.691,0,0,1,1.131,1.527,6.871,6.871,0,0,1,.813,1.88,8.437,8.437,0,0,1,.276,2.2,5.683,5.683,0,0,1-1.7,4.22,6.063,6.063,0,0,1-4.453,1.675" transform="translate(-584.833)" fill="#d2aa5f"/>
      <path id="Path_1144" data-name="Path 1144" d="M797.965,25.882V2.444h5.174v9.528L807.1,2.444h5.047L807.8,13.032l4.552,12.85h-5.287l-3.421-10.475-.509.806v9.669Z" transform="translate(-691.856 -2.119)" fill="#d2aa5f"/>
    </g>
  </g>
</svg>
